<mxfile host="app.diagrams.net" modified="2020-07-22T04:50:11.608Z" agent="5.0 (Windows NT 10.0; Win64; x64) AppleWebKit/537.36 (KHTML, like Gecko) Chrome/83.0.4103.116 Safari/537.36" etag="tf-Sms7OZlvpWU1vt8V8" version="13.4.8" type="github">
  <diagram name="学习Spring " id="42789a77-a242-8287-6e28-9cd8cfd52e62">
    <mxGraphModel dx="1422" dy="745" grid="1" gridSize="10" guides="1" tooltips="1" connect="1" arrows="1" fold="1" page="1" pageScale="1" pageWidth="1100" pageHeight="850" background="#ffffff" math="0" shadow="0">
      <root>
        <mxCell id="0" />
        <mxCell id="1" parent="0" />
        <mxCell id="OFASS0iZJi4-_X00OKtm-1" value="Focus Question: 学习Spring&amp;nbsp;" style="rounded=1;whiteSpace=wrap;html=1;" vertex="1" parent="1">
          <mxGeometry x="310" y="50" width="350" height="40" as="geometry" />
        </mxCell>
        <mxCell id="OFASS0iZJi4-_X00OKtm-2" value="&lt;b&gt;&lt;font style=&quot;font-size: 18px&quot;&gt;Spring&lt;/font&gt;&lt;/b&gt;" style="rounded=1;whiteSpace=wrap;html=1;" vertex="1" parent="1">
          <mxGeometry x="400" y="120" width="120" height="40" as="geometry" />
        </mxCell>
      </root>
    </mxGraphModel>
  </diagram>
</mxfile>
